<?xml version="1.0" encoding="UTF-8" standalone="no"?>
<!-- Created with Inkscape (http://www.inkscape.org/) -->

<svg
   width="250"
   height="70"
   viewBox="0 0 66.145831 18.520834"
   version="1.1"
   id="svg5893"
   inkscape:version="1.2.1 (9c6d41e410, 2022-07-14)"
   sodipodi:docname="logo.svg"
   inkscape:export-filename="..\..\..\sign.png"
   inkscape:export-xdpi="90"
   inkscape:export-ydpi="90"
   xmlns:inkscape="http://www.inkscape.org/namespaces/inkscape"
   xmlns:sodipodi="http://sodipodi.sourceforge.net/DTD/sodipodi-0.dtd"
   xmlns="http://www.w3.org/2000/svg"
   xmlns:svg="http://www.w3.org/2000/svg"
   xmlns:rdf="http://www.w3.org/1999/02/22-rdf-syntax-ns#"
   xmlns:cc="http://creativecommons.org/ns#"
   xmlns:dc="http://purl.org/dc/elements/1.1/">
  <title
     id="title1062">Beltpich Logo</title>
  <sodipodi:namedview
     id="namedview5895"
     pagecolor="#ffffff"
     bordercolor="#666666"
     borderopacity="1.0"
     inkscape:showpageshadow="2"
     inkscape:pageopacity="0.0"
     inkscape:pagecheckerboard="0"
     inkscape:deskcolor="#d1d1d1"
     inkscape:document-units="mm"
     showgrid="false"
     inkscape:zoom="0.62092452"
     inkscape:cx="157.02392"
     inkscape:cy="46.70455"
     inkscape:window-width="1600"
     inkscape:window-height="875"
     inkscape:window-x="-7"
     inkscape:window-y="-7"
     inkscape:window-maximized="1"
     inkscape:current-layer="layer1" />
  <defs
     id="defs5890" />
  <g
     inkscape:label="Layer 1"
     inkscape:groupmode="layer"
     id="layer1">
    <g
       id="g4990"
       inkscape:export-filename="g4990.jpg"
       inkscape:export-xdpi="90"
       inkscape:export-ydpi="90"
       transform="translate(-43.901907,-107.73503)">
      <g
         id="g4975">
        <path
           sodipodi:type="star"
           style="font-variation-settings:'wght' 400;opacity:0.998;fill:#ffffff;fill-opacity:1;stroke:#80009f;stroke-width:1.63083;stroke-linecap:round;stroke-linejoin:round;stroke-miterlimit:4;stroke-dasharray:none;stroke-opacity:1"
           id="path5533-4"
           sodipodi:sides="3"
           sodipodi:cx="73.708488"
           sodipodi:cy="80.842674"
           sodipodi:r1="4.7247024"
           sodipodi:r2="2.3623514"
           sodipodi:arg1="0.14189705"
           sodipodi:arg2="1.1890946"
           inkscape:flatsided="true"
           inkscape:rounded="0"
           inkscape:randomized="0"
           inkscape:transform-center-x="-0.87997589"
           inkscape:transform-center-y="-0.33408766"
           transform="matrix(0.49509929,-0.99784293,1.1094288,0.44530244,-73.064908,151.44774)"
           d="m 78.385705,81.510848 -7.59448,3.048328 1.157311,-8.101177 z" />
        <path
           sodipodi:type="star"
           style="font-variation-settings:'wght' 400;opacity:0.998;fill:#ffffff;fill-opacity:1;stroke:#ff4d00;stroke-width:1.63083;stroke-linecap:round;stroke-linejoin:round;stroke-miterlimit:4;stroke-dasharray:none;stroke-opacity:1"
           id="path5549-4"
           sodipodi:sides="3"
           sodipodi:cx="73.708488"
           sodipodi:cy="80.842674"
           sodipodi:r1="4.7247024"
           sodipodi:r2="2.3623514"
           sodipodi:arg1="0.14189705"
           sodipodi:arg2="1.1890946"
           inkscape:flatsided="true"
           inkscape:rounded="0"
           inkscape:randomized="0"
           inkscape:transform-center-x="-0.87997589"
           inkscape:transform-center-y="-0.33408766"
           transform="matrix(0.49509929,-0.99784293,1.1094288,0.44530244,-72.393835,157.44691)"
           d="m 78.385705,81.510848 -7.59448,3.048328 1.157311,-8.101177 z" />
        <path
           sodipodi:type="star"
           style="font-variation-settings:'wght' 400;opacity:0.998;fill:#ffffff;fill-opacity:1;stroke:#0b8f0b;stroke-width:1.63086;stroke-linecap:round;stroke-linejoin:round;stroke-miterlimit:4;stroke-dasharray:none;stroke-opacity:1"
           id="path5577-6"
           sodipodi:sides="3"
           sodipodi:cx="73.708488"
           sodipodi:cy="80.842674"
           sodipodi:r1="4.7247024"
           sodipodi:r2="2.3623514"
           sodipodi:arg1="0.14189705"
           sodipodi:arg2="1.1890946"
           inkscape:flatsided="true"
           inkscape:rounded="0"
           inkscape:randomized="0"
           inkscape:transform-center-x="-0.87997589"
           inkscape:transform-center-y="-0.33408766"
           transform="matrix(0.49508208,-0.99784397,1.1093902,0.4453029,-72.023663,154.23449)"
           d="m 78.385705,81.510848 -7.59448,3.048328 1.157311,-8.101177 z" />
      </g>
      <g
         aria-label="Beltpich"
         id="text4953"
         style="font-size:4.23333px;line-height:1.05;stroke-width:0.264583">
        <path
           d="m 65.95912,116.45785 q 0.688623,0.14675 1.106313,0.68862 0.417689,0.53058 0.417689,1.2192 0,0.99342 -0.699912,1.58045 -0.688623,0.57573 -1.930402,0.57573 h -3.69147 v -7.92481 h 3.567292 q 1.207912,0 1.885246,0.55316 0.688623,0.55315 0.688623,1.50142 0,0.69991 -0.372533,1.16276 -0.361245,0.46284 -0.970846,0.64347 z m -2.86738,-0.65476 h 1.264356 q 0.474134,0 0.72249,-0.2032 0.259645,-0.21449 0.259645,-0.62089 0,-0.4064 -0.259645,-0.62089 -0.248356,-0.21449 -0.72249,-0.21449 H 63.09174 Z m 1.422401,3.16089 q 0.485423,0 0.745067,-0.21449 0.270934,-0.22577 0.270934,-0.64346 0,-0.41769 -0.282222,-0.65476 -0.270934,-0.23707 -0.756357,-0.23707 H 63.09174 v 1.74978 z"
           style="font-weight:bold;font-size:11.2889px;font-family:Poppins;-inkscape-font-specification:'Poppins, Bold'"
           id="path4955" />
        <path
           d="m 74.538689,117.27065 q 0,0.27093 -0.03387,0.56444 h -4.368804 q 0.04515,0.58703 0.372533,0.90311 0.338667,0.3048 0.82409,0.3048 0.72249,0 1.004712,-0.6096 h 2.05458 q -0.158044,0.62089 -0.575734,1.11761 -0.4064,0.49671 -1.02729,0.77893 -0.620889,0.28222 -1.388534,0.28222 -0.92569,0 -1.64818,-0.39511 -0.722489,-0.39511 -1.12889,-1.12889 -0.4064,-0.73378 -0.4064,-1.71591 0,-0.98214 0.395111,-1.71592 0.406401,-0.73377 1.12889,-1.12889 0.72249,-0.39511 1.659469,-0.39511 0.914401,0 1.625601,0.38383 0.711201,0.38382 1.106312,1.09502 0.406401,0.7112 0.406401,1.65947 z m -1.975558,-0.508 q 0,-0.49671 -0.338667,-0.79023 -0.338667,-0.29351 -0.846667,-0.29351 -0.485423,0 -0.82409,0.28222 -0.327378,0.28223 -0.4064,0.80152 z"
           style="font-weight:bold;font-size:11.2889px;font-family:Poppins;-inkscape-font-specification:'Poppins, Bold'"
           id="path4957" />
        <path
           d="m 77.485083,112.16806 v 8.35379 h -1.930402 v -8.35379 z"
           style="font-weight:bold;font-size:11.2889px;font-family:Poppins;-inkscape-font-specification:'Poppins, Bold'"
           id="path4959" />
        <path
           d="m 82.395755,118.88496 v 1.63689 h -0.982134 q -1.049868,0 -1.63689,-0.508 -0.587023,-0.51929 -0.587023,-1.68205 v -2.50613 h -0.767645 v -1.60303 h 0.767645 v -1.53529 h 1.930402 v 1.53529 h 1.264357 v 1.60303 H 81.12011 v 2.52871 q 0,0.28222 0.135467,0.4064 0.135466,0.12418 0.451556,0.12418 z"
           style="font-weight:bold;font-size:11.2889px;font-family:Poppins;-inkscape-font-specification:'Poppins, Bold'"
           id="path4961" />
        <path
           d="m 85.398605,115.11447 q 0.282223,-0.44027 0.778934,-0.7112 0.496712,-0.27094 1.162757,-0.27094 0.778934,0 1.411113,0.39511 0.632178,0.39512 0.993423,1.12889 0.372534,0.73378 0.372534,1.70463 0,0.97084 -0.372534,1.71591 -0.361245,0.73378 -0.993423,1.14018 -0.632179,0.39511 -1.411113,0.39511 -0.654756,0 -1.162757,-0.27093 -0.496711,-0.27094 -0.778934,-0.69991 v 3.88338 h -1.930402 v -9.30206 h 1.930402 z m 2.754492,2.24649 q 0,-0.72249 -0.4064,-1.12889 -0.395112,-0.41769 -0.982135,-0.41769 -0.575734,0 -0.982134,0.41769 -0.395112,0.41769 -0.395112,1.14018 0,0.72249 0.395112,1.14018 0.4064,0.41769 0.982134,0.41769 0.575734,0 0.982135,-0.41769 0.4064,-0.42898 0.4064,-1.15147 z"
           style="font-weight:bold;font-size:11.2889px;font-family:Poppins;-inkscape-font-specification:'Poppins, Bold'"
           id="path4963" />
        <path
           d="m 92.104221,113.56789 q -0.508,0 -0.835378,-0.29351 -0.31609,-0.3048 -0.31609,-0.74507 0,-0.45156 0.31609,-0.74507 0.327378,-0.3048 0.835378,-0.3048 0.496712,0 0.812801,0.3048 0.327378,0.29351 0.327378,0.74507 0,0.44027 -0.327378,0.74507 -0.316089,0.29351 -0.812801,0.29351 z m 0.959557,0.65475 v 6.29921 h -1.930402 v -6.29921 z"
           style="font-weight:bold;font-size:11.2889px;font-family:Poppins;-inkscape-font-specification:'Poppins, Bold'"
           id="path4965" />
        <path
           d="m 94.07978,117.37225 q 0,-0.98214 0.395112,-1.71592 0.4064,-0.73377 1.117601,-1.12889 0.722489,-0.39511 1.648179,-0.39511 1.185335,0 1.975558,0.62089 0.80151,0.62089 1.04987,1.74978 h -2.054582 q -0.259645,-0.72249 -1.004712,-0.72249 -0.530579,0 -0.846668,0.41769 -0.316089,0.4064 -0.316089,1.17405 0,0.76764 0.316089,1.18533 0.316089,0.4064 0.846668,0.4064 0.745067,0 1.004712,-0.72249 h 2.054582 q -0.24836,1.10631 -1.04987,1.73849 -0.801512,0.63218 -1.975558,0.63218 -0.92569,0 -1.648179,-0.39511 -0.711201,-0.39511 -1.117601,-1.12889 -0.395112,-0.73378 -0.395112,-1.71591 z"
           style="font-weight:bold;font-size:11.2889px;font-family:Poppins;-inkscape-font-specification:'Poppins, Bold'"
           id="path4967" />
        <path
           d="m 105.16547,114.15491 q 1.08374,0 1.73849,0.72249 0.65476,0.7112 0.65476,1.96427 v 3.68018 h -1.91911 v -3.42054 q 0,-0.63217 -0.32738,-0.98213 -0.32738,-0.34996 -0.88054,-0.34996 -0.55315,0 -0.88053,0.34996 -0.32738,0.34996 -0.32738,0.98213 v 3.42054 h -1.9304 v -8.35379 h 1.9304 v 2.90125 q 0.29351,-0.41769 0.80151,-0.66604 0.508,-0.24836 1.14018,-0.24836 z"
           style="font-weight:bold;font-size:11.2889px;font-family:Poppins;-inkscape-font-specification:'Poppins, Bold'"
           id="path4969" />
      </g>
    </g>
  </g>
  <metadata
     id="metadata1060">
    <rdf:RDF>
      <cc:Work
         rdf:about="">
        <dc:creator>
          <cc:Agent>
            <dc:title>Beltpich Servicios y Consultorías, SRL</dc:title>
          </cc:Agent>
        </dc:creator>
        <dc:publisher>
          <cc:Agent>
            <dc:title>Beltpich Servicios y Consultorías, SRL</dc:title>
          </cc:Agent>
        </dc:publisher>
        <dc:title>Beltpich Logo</dc:title>
        <dc:subject>
          <rdf:Bag>
            <rdf:li>Beltpich</rdf:li>
            <rdf:li>servicios</rdf:li>
            <rdf:li>ciberseguridad</rdf:li>
            <rdf:li>web design</rdf:li>
          </rdf:Bag>
        </dc:subject>
      </cc:Work>
    </rdf:RDF>
  </metadata>
</svg>
